<svg id="Capa_1" enable-background="new 0 0 512 512" height="512" viewBox="0 0 512 512" width="512" xmlns="http://www.w3.org/2000/svg"><g><path d="m315.5 251.5c4.143 0 7.5-3.358 7.5-7.5v-15c0-4.142-3.357-7.5-7.5-7.5s-7.5 3.358-7.5 7.5v15c0 4.142 3.357 7.5 7.5 7.5z"/><path d="m196.5 251.5c4.142 0 7.5-3.358 7.5-7.5v-15c0-4.142-3.358-7.5-7.5-7.5s-7.5 3.358-7.5 7.5v15c0 4.142 3.358 7.5 7.5 7.5z"/><path d="m214.562 291.076c12.148 10.317 26.74 15.474 41.362 15.474 14.608 0 29.246-5.151 41.488-15.452 3.169-2.667 3.576-7.398.91-10.567-2.669-3.169-7.397-3.578-10.568-.91-18.783 15.805-44.888 15.814-63.481.022-3.158-2.681-7.89-2.294-10.572.862-2.681 3.157-2.296 7.89.861 10.571z"/><path d="m354.5 385h-47.5v-28h61.5c23.435 0 42.5-19.065 42.5-42.5v-53.85c10.238-6.815 17-18.456 17-31.65s-6.762-24.834-17-31.65v-21.55c8.466-1.22 15-8.502 15-17.3v-21c0-8.899-6.682-16.252-15.289-17.344-1.773-23.834-12.115-45.981-29.404-62.717-18.28-17.694-42.361-27.439-67.807-27.439h-24.643c-1.521-16.795-15.672-30-32.857-30s-31.336 13.205-32.857 30h-24.643c-25.698 0-49.949 9.912-68.288 27.908-17.03 16.713-27.183 38.649-28.935 62.249-8.601 1.098-15.277 8.448-15.277 17.343v21c0 8.798 6.534 16.081 15 17.3v21.55c-10.237 6.815-17 18.456-17 31.65s6.763 24.834 17 31.65v53.85c0 23.435 19.065 42.5 42.5 42.5h61.5v28h-47.5c-48.248 0-87.5 39.252-87.5 87.5v12c0 15.164 12.336 27.5 27.5 27.5h20c4.142 0 7.5-3.358 7.5-7.5s-3.358-7.5-7.5-7.5h-20c-6.893 0-12.5-5.607-12.5-12.5v-12c0-39.977 32.523-72.5 72.5-72.5h17.862c1.758 19.188 10.206 36.98 24.143 50.546 15.206 14.802 35.27 22.954 56.495 22.954 21.226 0 41.289-8.152 56.495-22.954 13.937-13.567 22.384-31.358 24.143-50.546h17.862c39.977 0 72.5 32.523 72.5 72.5v12c0 6.893-5.607 12.5-12.5 12.5h-262c-4.142 0-7.5 3.358-7.5 7.5s3.358 7.5 7.5 7.5h262c15.163 0 27.5-12.336 27.5-27.5v-12c0-48.248-39.252-87.5-87.5-87.5zm-208.5-179h7.5c12.407 0 22.5-10.093 22.5-22.5v-7.5h160v7.5c0 12.407 10.094 22.5 22.5 22.5h7.5v34c0 60.654-49.346 110-110 110s-110-49.346-110-110zm74 153.708c11.406 3.436 23.489 5.292 36 5.292s24.594-1.856 36-5.292v32.79c0 19.851-16.149 36-36 36s-36-16.149-36-36zm176-45.208c0 15.164-12.337 27.5-27.5 27.5h-40.321c24.901-17.672 43.072-44.225 49.875-75h11.946c2.042 0 4.045-.167 6-.478zm-6-62.5h-9.579c.378-3.95.579-7.952.579-12v-3.5h9.5c4.143 0 7.5-3.358 7.5-7.5s-3.357-7.5-7.5-7.5h-9.5v-15.5h9c12.683 0 23 10.318 23 23s-10.317 23-23 23zm0-61h-31.5c-4.136 0-7.5-3.364-7.5-7.5v-7.5h45v15.478c-1.955-.311-3.958-.478-6-.478zm-134-176c8.901 0 16.294 6.501 17.729 15h-35.458c1.435-8.499 8.828-15 17.729-15zm-155 122.5c0-1.378 1.122-2.5 2.5-2.5h239.833c4.143 0 7.5-3.358 7.5-7.5s-3.357-7.5-7.5-7.5h-226.968c3.833-41.855 39.503-75 82.135-75h16.802c-3.966 5.674-6.302 12.567-6.302 20v1c0 4.142 3.358 7.5 7.5 7.5s7.5-3.358 7.5-7.5v-1c0-11.028 8.972-20 20-20h.167 4.333v21c0 4.142 3.358 7.5 7.5 7.5 4.143 0 7.5-3.358 7.5-7.5v-21h4.5c11.028 0 20 8.972 20 20v1c0 4.142 3.357 7.5 7.5 7.5s7.5-3.358 7.5-7.5v-1c0-7.433-2.336-14.326-6.302-20h16.802c43.145 0 78.382 32.587 82.157 75h-17.324c-4.143 0-7.5 3.358-7.5 7.5s3.357 7.5 7.5 7.5h30.167c1.379 0 2.5 1.122 2.5 2.5v21c0 1.378-1.121 2.5-2.5 2.5h-305c-1.378 0-2.5-1.122-2.5-2.5zm15 38.5h45v7.5c0 4.136-3.364 7.5-7.5 7.5h-31.5c-2.042 0-4.045.167-6 .478zm6 30h9v15.5h-9.5c-4.142 0-7.5 3.358-7.5 7.5s3.358 7.5 7.5 7.5h9.5v3.5c0 4.048.201 8.05.579 12h-9.579c-12.682 0-23-10.318-23-23s10.318-23 23-23zm-6 108.5v-47.978c1.955.312 3.958.478 6 .478h11.946c6.803 30.775 24.974 57.328 49.875 75h-40.321c-15.164 0-27.5-12.336-27.5-27.5zm140 144c-34.082 0-61.873-25.279-65.566-58.5h15.123c3.639 24.577 24.871 43.498 50.444 43.498 25.572 0 46.804-18.921 50.444-43.498h15.123c-3.696 33.221-31.486 58.5-65.568 58.5z"/></g></svg>